<svg xmlns="http://www.w3.org/2000/svg" width="12.95" height="25.188" viewBox="0 0 12.95 25.188">
  <g id="Path_7819" data-name="Path 7819" fill="#fff" opacity="0.674">
    <path d="M 12.20034408569336 23.28403472900391 L 6.859903812408447 17.5584716796875 L 6.297423839569092 16.95542144775391 L 5.750293731689453 17.57243156433105 L 0.7500039339065552 23.21143913269043 L 0.7500039339065552 2.398831605911255 C 0.7500039339065552 1.975651502609253 0.9334139227867126 1.564171552658081 1.266443967819214 1.240191578865051 C 1.581973910331726 0.9332515597343445 1.998623967170715 0.7500015497207642 2.380993843078613 0.7500015497207642 L 10.79195404052734 0.7500015497207642 C 11.56854438781738 0.7500015497207642 12.20034408569336 1.489661574363708 12.20034408569336 2.398831605911255 L 12.20034408569336 23.28403472900391 Z" stroke="none"/>
    <path d="M 2.380993843078613 1.500001907348633 C 1.992653846740723 1.500001907348633 1.500003814697266 1.923191070556641 1.500003814697266 2.398820877075195 L 1.500003814697266 21.23520278930664 L 5.189134120941162 17.07483291625977 L 6.283393859863281 15.84079170227051 L 7.408363819122314 17.04689025878906 L 11.45034408569336 21.38036346435547 L 11.45034408569336 2.398820877075195 C 11.45034408569336 1.911611557006836 11.14883422851562 1.500001907348633 10.79195404052734 1.500001907348633 L 2.380993843078613 1.500001907348633 M 2.380993843078613 1.9073486328125e-06 L 10.79195404052734 1.9073486328125e-06 C 11.98400402069092 1.9073486328125e-06 12.95034408569336 1.073991775512695 12.95034408569336 2.398820877075195 L 12.95034408569336 25.18768119812012 L 6.311453819274902 18.07002258300781 L 3.814697265625e-06 25.18768119812012 L 3.814697265625e-06 2.398820877075195 C 3.814697265625e-06 1.073991775512695 1.188943862915039 1.9073486328125e-06 2.380993843078613 1.9073486328125e-06 Z" stroke="none" fill="#020000"/>
  </g>
</svg>
