<svg xmlns="http://www.w3.org/2000/svg" width="103.63" height="138.09" viewBox="0 0 103.63 138.09"><g transform="translate(-135.688 -633.91)" opacity="0.59"><path d="M0,0H93V100a38,38,0,0,1-38,38H0Z" transform="translate(136 634)" fill="#00b4ce" opacity="0.71"/><path d="M1007.9,4073.32H982.343v24.268Z" transform="translate(-768.583 -3339.101)" fill="#feebca"/><g transform="translate(135.689 633.91)"><path d="M2.7,108.354a2.7,2.7,0,0,0,2.7-2.7V5.391H98.233v5.392a2.7,2.7,0,1,0,5.391,0V2.7a2.7,2.7,0,0,0-2.7-2.7H2.7A2.7,2.7,0,0,0,0,2.7V105.659a2.7,2.7,0,0,0,2.7,2.695Zm0,0" fill-rule="evenodd"/><path d="M100.928,110a2.7,2.7,0,0,0-2.7,2.7v72.23H72.89a2.7,2.7,0,0,0-2.7,2.7v25.342H5.39V207.58a2.7,2.7,0,0,0-5.391,0v8.087a2.7,2.7,0,0,0,2.7,2.7H72.941a1.487,1.487,0,0,0,.221-.011,1.033,1.033,0,0,0,.134-.02c.045-.006.085-.011.126-.019s.089-.022.135-.033.081-.019.121-.031.082-.029.123-.044.084-.027.125-.044.073-.035.108-.052.088-.039.131-.061.066-.039.1-.059.086-.048.127-.077.075-.055.112-.082a1.189,1.189,0,0,0,.1-.076,2.29,2.29,0,0,0,.2-.18l28.038-28.038a2.588,2.588,0,0,0,.234-.272q.028-.035.054-.072a2.792,2.792,0,0,0,.186-.3l.008-.019a2.654,2.654,0,0,0,.133-.3c.011-.027.021-.056.031-.084a2.8,2.8,0,0,0,.093-.334.02.02,0,0,1,0-.007,2.774,2.774,0,0,0,.041-.338.569.569,0,0,1,.005-.092.553.553,0,0,0,0-.091V112.7a2.7,2.7,0,0,0-2.7-2.7ZM75.586,209.155V190.32H94.42Zm0,0" transform="translate(0 -80.353)" fill-rule="evenodd"/><path d="M82.334,271.015c6.741-5.431,16.368-8.546,26.415-8.546s19.674,3.116,26.415,8.546a2.7,2.7,0,1,0,3.382-4.2c-7.681-6.189-18.542-9.739-29.8-9.739s-22.116,3.55-29.8,9.739a2.7,2.7,0,1,0,3.382,4.2Zm0,0" transform="translate(-72.623 -178.464) rotate(-3)" fill="#feebca" fill-rule="evenodd"/><path d="M82.334,271.015c6.741-5.431,16.368-8.546,26.415-8.546s19.674,3.116,26.415,8.546a2.7,2.7,0,1,0,3.382-4.2c-7.681-6.189-18.542-9.739-29.8-9.739s-22.116,3.55-29.8,9.739a2.7,2.7,0,1,0,3.382,4.2Zm0,0" transform="translate(-56.937 -187.785)" fill-rule="evenodd"/><path d="M247.751,105.786a2.694,2.694,0,0,0-3.811,0l-6.091,6.091-6.092-6.091a2.7,2.7,0,0,0-3.811,3.811l6.091,6.091-6.091,6.092a2.7,2.7,0,0,0,3.811,3.811l6.092-6.091,6.091,6.091a2.7,2.7,0,0,0,3.811-3.811l-6.091-6.092,6.091-6.091A2.694,2.694,0,0,0,247.751,105.786Zm0,0" transform="translate(-165.929 -76.696)" fill-rule="evenodd"/><path d="M78.739,125.589a2.7,2.7,0,0,0,3.811,0l6.091-6.091,6.091,6.091a2.7,2.7,0,0,0,3.813-3.811l-6.091-6.091,6.091-6.092a2.7,2.7,0,0,0-3.813-3.811l-6.091,6.091-6.091-6.091a2.7,2.7,0,0,0-3.811,3.811l6.091,6.092-6.091,6.091A2.7,2.7,0,0,0,78.739,125.589Zm0,0" transform="translate(-56.939 -76.692)" fill-rule="evenodd"/><path d="M2.7,427.387a2.7,2.7,0,1,0-2.7-2.7A2.7,2.7,0,0,0,2.7,427.387Zm0,0" transform="translate(0 -308.251)" fill-rule="evenodd"/><path d="M367.14,70a2.7,2.7,0,1,0,2.7,2.7A2.7,2.7,0,0,0,367.14,70Zm0,0" transform="translate(-266.213 -51.135)" fill-rule="evenodd"/></g></g></svg>