<svg xmlns="http://www.w3.org/2000/svg" width="145.356" height="138.327" viewBox="0 0 145.356 138.327"><g transform="translate(0.002 0.002)" opacity="0.52"><path d="M150.72,90.063,99.867,117.986l44.324,24.339L195.044,114.4Zm0,0" transform="translate(-71.516 -64.496)" fill="#00b4ce"/><path d="M105.07,248.7l42.878,23.545V214.764L105.07,191.219Zm0,0" transform="translate(-75.242 -136.935)" fill="#00b4ce" opacity="0.54"/><path d="M335.711,238.582V184.226L304.788,226,294,220.747l.031,40.722Zm0,0" transform="translate(-210.538 -131.928)" fill="#00b4ce"/><g transform="translate(10.41 3.778)"><path d="M285,199.1l16.8,16.8,44.8-24.6-16.8-16.8Zm0,0" transform="translate(-214.502 -128.74)" fill="#7ed3e0"/><path d="M36.668,203.886l45.169,24.8,17.1-17.1-45.169-24.8Zm0,0" transform="translate(-36.668 -137.541)" fill="#7ed3e0"/><path d="M328.839,67.621,346.061,50.4,301.626,26,284.4,43.222Zm0,0" transform="translate(-214.075 -22.397)" fill="#7ed3e0"/><path d="M43,37.506,59.4,53.9l44.068-24.2-16.4-16.4Zm0,0" transform="translate(-41.202 -13.309)" fill="#7ed3e0"/></g><path d="M129.188,49l15.329-15.329a2.839,2.839,0,0,0-.641-4.5L125.448,19.059a2.839,2.839,0,1,0-2.732,4.977l15.112,8.3L124.673,45.488,77.359,19.507,90.513,6.353l13.3,7.3a2.839,2.839,0,1,0,2.732-4.977L91.377.35A2.838,2.838,0,0,0,88,.831L72.67,16.161,57.345.831A2.84,2.84,0,0,0,53.971.35L1.473,29.178a2.839,2.839,0,0,0-.641,4.5L16.16,49,.832,64.329a2.839,2.839,0,0,0,.641,4.5l15.864,8.712v29.118a2.84,2.84,0,0,0,1.474,2.49l52.5,28.826a2.838,2.838,0,0,0,2.732,0l52.5-28.826a2.84,2.84,0,0,0,1.473-2.49V77.537l15.864-8.711a2.839,2.839,0,0,0,.641-4.5ZM72.674,74.589,26.074,49l46.6-25.589L119.275,49ZM54.837,6.353,67.99,19.507,20.676,45.488,7.522,32.334ZM20.678,52.515,67.993,78.5,54.838,91.651,7.522,65.67Zm101.656,52.461L75.513,130.685v-29.02a2.839,2.839,0,1,0-5.678,0v29.019l-46.82-25.708V80.655l30.957,17a2.838,2.838,0,0,0,3.373-.481l15.33-15.33L88,97.172a2.838,2.838,0,0,0,3.373.481l30.957-17ZM90.513,91.651,77.357,78.5l47.314-25.98,13.156,13.154Zm0,0"/><path d="M397.64,53.853a2.841,2.841,0,1,0-2.007-.833,2.841,2.841,0,0,0,2.007.833Zm0,0" transform="translate(-282.723 -34.5)"/><path d="M248.839,314.926a2.84,2.84,0,1,0,2.007.832,2.84,2.84,0,0,0-2.007-.832Zm0,0" transform="translate(-176.164 -225.524)"/></g></svg>